<svg width="24" height="26" viewBox="0 0 24 26" fill="none" xmlns="http://www.w3.org/2000/svg">
<path d="M12 0.666656C8.324 0.666656 5.33333 3.65732 5.33333 7.33332C5.33333 11.0093 8.324 14 12 14C15.676 14 18.6667 11.0093 18.6667 7.33332C18.6667 3.65732 15.676 0.666656 12 0.666656ZM12 11.3333C9.79467 11.3333 8 9.53866 8 7.33332C8 5.12799 9.79467 3.33332 12 3.33332C14.2053 3.33332 16 5.12799 16 7.33332C16 9.53866 14.2053 11.3333 12 11.3333ZM24 26V24.6667C24 19.5213 19.812 15.3333 14.6667 15.3333H9.33333C4.18667 15.3333 0 19.5213 0 24.6667V26H2.66667V24.6667C2.66667 20.9907 5.65733 18 9.33333 18H14.6667C18.3427 18 21.3333 20.9907 21.3333 24.6667V26H24Z" fill="#BCC1BA"/>
</svg>
